/* XPM */
static char * image_name[]={
"20 20 43 2",
"  	c #474747",
". 	c #454545",
"X 	c #4A4A4A",
"o 	c #707070",
"O 	c #7F7F7F",
"+ 	c #708090",
"@ 	c #7D7D7D",
"# 	c #91535D",
"$ 	c #A52A2A",
"% 	c #8E2323",
"& 	c #A8A8A8",
"* 	c #9B7071",
"= 	c #545454",
"- 	c #757575",
"; 	c #B3B3B3",
": 	c #D11619",
"> 	c #6B3939",
", 	c #737373",
"< 	c #828282",
"1 	c #DA322D",
"2 	c #4F4F4F",
"3 	c #7E7E7E",
"4 	c #FF6347",
"5 	c #6E6E6E",
"6 	c #575757",
"7 	c #B0B0B0",
"8 	c #141414",
"9 	c #121212",
"0 	c #0D0D0D",
"q 	c #6B6B6B",
"w 	c #1F1F1F",
"e 	c #0F0F0F",
"r 	c #0A0A0A",
"t 	c #080808",
"y 	c #363636",
"u 	c #787878",
"i 	c #303030",
"p 	c #171717",
"a 	c #1C1C1C",
"s 	c #4D4D4D",
"d 	c #525252",
"f 	c #333333",
"g 	c #9C9C9C",
"                  .       . .     . X o ",
"  O O O + @ # # $ $ % % # o @ + O O O & ",
". O + + * $ $ $ $ $ $ % % % = - + O O ; ",
". O + # $ : : : : : : $ % % > > , < O ; ",
"  + * $ : : : : 1 1 1 : $ % % > > - + ; ",
"  @ $ : : : 1 1 1 1 1 : $ % % > > 2 3 ; ",
"  # $ : : 1 1 4 4 4 1 : $ % % > > > 5 ; ",
"  # $ : 1 1 4 4 4 1 1 : $ % % > > > 6 7 ",
"  $ $ : 1 1 4 4 4 1 1 $ % % % > > > > 7 ",
"  % $ : 1 1 1 1 1 1 : $ % % > > > 8 > 7 ",
"  % % $ : 1 1 1 1 : $ % % % > > > 9 > 7 ",
"  % % % $ : : $ $ $ % % % > > > > 0 . 7 ",
"  6 % % % % $ % % % % % > > > > 9 0 = 7 ",
"  q > % % % % % % % > > > > > > 0 w 5 7 ",
"  @ > > > % % % > > > > > > > e r 2 O 7 ",
"  + - > > > > > > > > > > > e t y u < 7 ",
"  O < 5 > > > > > > > > 9 0 r i o < O 7 ",
"  O O + , X > p 8 9 e 0 r a s u < O O 7 ",
"d O O O < @ q = > f i > = 5 < < O O O ; ",
"o g 7 ; ; ; ; ; ; ; ; ; ; ; ; ; ; ; ; ; "
};
