/* XPM */
static char * edit_xpm[] = {
"20 20 92 2",
"  	c #B7B7B7",
". 	c #B8B8B8",
"+ 	c #B9B9B9",
"@ 	c #BABABA",
"# 	c #B6B6B6",
"$ 	c #8F8F8F",
"% 	c #808080",
"& 	c #565656",
"* 	c #7F7F7F",
"= 	c #7E7E7E",
"- 	c #7D7D7D",
"; 	c #4D4D4D",
"> 	c #7C7C7C",
", 	c #797979",
"' 	c #767676",
") 	c #777777",
"! 	c #7A7A7A",
"~ 	c #4C4C4C",
"{ 	c #7B7B7B",
"] 	c #787878",
"^ 	c #DBDBDB",
"/ 	c #B4B4B4",
"( 	c #6C6C6C",
"_ 	c #737373",
": 	c #757575",
"< 	c #717171",
"[ 	c #6F6F6F",
"} 	c #6E6E6E",
"| 	c #707070",
"1 	c #727272",
"2 	c #D9D9D9",
"3 	c #AFAFAF",
"4 	c #616161",
"5 	c #979797",
"6 	c #FFFFFF",
"7 	c #D7D7D7",
"8 	c #666666",
"9 	c #747474",
"0 	c #696969",
"a 	c #D6D6D6",
"b 	c #ABABAB",
"c 	c #5A5A5A",
"d 	c #676767",
"e 	c #929292",
"f 	c #575757",
"g 	c #535353",
"h 	c #545454",
"i 	c #595959",
"j 	c #606060",
"k 	c #C7C7C7",
"l 	c #D8D8D8",
"m 	c #9A9A9A",
"n 	c #D5D5D5",
"o 	c #A9A9A9",
"p 	c #585858",
"q 	c #4E4E4E",
"r 	c #909090",
"s 	c #515151",
"t 	c #555555",
"u 	c #5F5F5F",
"v 	c #6D6D6D",
"w 	c #F5F5F5",
"x 	c #CCCCCC",
"y 	c #828282",
"z 	c #BFBFBF",
"A 	c #A8A8A8",
"B 	c #4F4F4F",
"C 	c #838383",
"D 	c #5E5E5E",
"E 	c #626262",
"F 	c #A6A6A6",
"G 	c #D3D3D3",
"H 	c #D4D4D4",
"I 	c #5C5C5C",
"J 	c #AAAAAA",
"K 	c #505050",
"L 	c #5D5D5D",
"M 	c #CBCBCB",
"N 	c #DFDFDF",
"O 	c #EAEAEA",
"P 	c #868686",
"Q 	c #898989",
"R 	c #C1C1C1",
"S 	c #888888",
"T 	c #B5B5B5",
"U 	c #F4F4F4",
"V 	c #949494",
"W 	c #B3B3B3",
"X 	c #686868",
"Y 	c #636363",
"Z 	c #6A6A6A",
"` 	c #ADADAD",
"    . . . . . . . + . . . + + . . @ # $ ",
". % % % % % % % % % % % % % % % % % % & ",
"+ % % % % % % % % % % % % % * = - - * ; ",
"+ % % % % % % % % % % % % * > , ' ) ! ~ ",
". * = - { ! ! ! { > - * % = ] ^ / ( _ ~ ",
"  = ! : < [ } [ | _ ] > - ! 1 2 3 4 ( ~ ",
". > 5 6 6 6 6 6 7 8 } 9 ' 1 0 a b c d ~ ",
". , e 6 f g h & i j d = k l m n o p 8 q ",
". ] r 6 s q s t i u v w x y z 6 A p 8 B ",
". ) $ 6 - > * C D E F 6 4 g g G A p 8 B ",
"  ) $ 6 G G H n I j 7 n g t p H o p 8 B ",
". ) $ 6 s B g p I D a H h i D n J p 8 B ",
". ) $ 6 s K h p I L M N h i D O J p 8 B ",
". ) $ 6 - - % C P I 5 6 Q 4 R O o p 8 B ",
". ] S a H G H n n c c T 6 U V W V c X q ",
"  ! | Y c & f p c L u D c & & & c 4 v B ",
". > ' v 8 E 4 4 Y 8 Z Z 8 E 4 Y d v : q ",
". * > ) 9 1 < < 1 9 ' ' 9 1 < 1 : ] { q ",
"` % * = > > { { > > - - > { { > - = * ; ",
"$ E K ; ~ ~ ; ; ; ; ; ; ; ; ; ; ; ; ; ~ "};
