/* XPM */
static char * editSelected_xpm[] = {
"20 20 95 2",
"  	c #484848",
". 	c #474747",
"+ 	c #464646",
"@ 	c #454545",
"# 	c #494949",
"$ 	c #707070",
"% 	c #808080",
"& 	c #A9A9A9",
"* 	c #7F7F7F",
"= 	c #7E7E7E",
"- 	c #7D7D7D",
"; 	c #B2B2B2",
"> 	c #7C7C7C",
", 	c #797979",
"' 	c #767676",
") 	c #777777",
"! 	c #7A7A7A",
"~ 	c #B3B3B3",
"{ 	c #7B7B7B",
"] 	c #787878",
"^ 	c #DBDBDB",
"/ 	c #B4B4B4",
"( 	c #6C6C6C",
"_ 	c #737373",
": 	c #757575",
"< 	c #717171",
"[ 	c #6F6F6F",
"} 	c #6E6E6E",
"| 	c #727272",
"1 	c #D9D9D9",
"2 	c #AFAFAF",
"3 	c #616161",
"4 	c #979797",
"5 	c #FFFFFF",
"6 	c #D7D7D7",
"7 	c #666666",
"8 	c #747474",
"9 	c #696969",
"0 	c #D6D6D6",
"a 	c #ABABAB",
"b 	c #5A5A5A",
"c 	c #676767",
"d 	c #929292",
"e 	c #575757",
"f 	c #535353",
"g 	c #545454",
"h 	c #565656",
"i 	c #595959",
"j 	c #606060",
"k 	c #C7C7C7",
"l 	c #D8D8D8",
"m 	c #9A9A9A",
"n 	c #D5D5D5",
"o 	c #585858",
"p 	c #B1B1B1",
"q 	c #909090",
"r 	c #515151",
"s 	c #4E4E4E",
"t 	c #555555",
"u 	c #5F5F5F",
"v 	c #6D6D6D",
"w 	c #F5F5F5",
"x 	c #CCCCCC",
"y 	c #828282",
"z 	c #BFBFBF",
"A 	c #A8A8A8",
"B 	c #AEAEAE",
"C 	c #8F8F8F",
"D 	c #838383",
"E 	c #5E5E5E",
"F 	c #626262",
"G 	c #A6A6A6",
"H 	c #D3D3D3",
"I 	c #D4D4D4",
"J 	c #5C5C5C",
"K 	c #4F4F4F",
"L 	c #AAAAAA",
"M 	c #505050",
"N 	c #5D5D5D",
"O 	c #CBCBCB",
"P 	c #DFDFDF",
"Q 	c #EAEAEA",
"R 	c #868686",
"S 	c #898989",
"T 	c #C1C1C1",
"U 	c #888888",
"V 	c #B5B5B5",
"W 	c #F4F4F4",
"X 	c #949494",
"Y 	c #686868",
"Z 	c #636363",
"` 	c #6A6A6A",
" .	c #B0B0B0",
"..	c #525252",
"+.	c #9D9D9D",
"    . . . . . . . + . . . + + . . @ # $ ",
". % % % % % % % % % % % % % % % % % % & ",
"+ % % % % % % % % % % % % % * = - - * ; ",
"+ % % % % % % % % % % % % * > , ' ) ! ~ ",
". * = - { ! ! ! { > - * % = ] ^ / ( _ ~ ",
"  = ! : < [ } [ $ _ ] > - ! | 1 2 3 ( ~ ",
". > 4 5 5 5 5 5 6 7 } 8 ' | 9 0 a b c ~ ",
". , d 5 e f g h i j c = k l m n & o 7 p ",
". ] q 5 r s r t i u v w x y z 5 A o 7 B ",
". ) C 5 - > * D E F G 5 3 f f H A o 7 B ",
"  ) C 5 H H I n J j 6 n f t o I & o 7 B ",
". ) C 5 r K f o J E 0 I g i E n L o 7 2 ",
". ) C 5 r M g o J N O P g i E Q L o 7 2 ",
". ) C 5 - - % D R J 4 5 S 3 T Q & o 7 2 ",
". ] U 0 I H I n n b b V 5 W X ~ X b Y 2 ",
"  ! $ Z b h e o b N u E b h h h b 3 v 2 ",
". > ' v 7 F 3 3 Z 7 ` ` 7 F 3 Z c v :  .",
". * > ) 8 | < < | 8 ' ' 8 | < | : ] { p ",
"..% * = > > { { > > - - > { { > - = * ; ",
"$ +.2 ; ~ ~ ; ; ; ; ; ; ; ; ; ; ; ; ; ~ "};
