/* XPM */
static char * greenSelected_xpm[] = {
"20 20 295 2",
"  	c #484848",
". 	c #474747",
"+ 	c #464646",
"@ 	c #454545",
"# 	c #494949",
"$ 	c #707070",
"% 	c #7F7F7F",
"& 	c #827E81",
"* 	c #7C7F7C",
"= 	c #638863",
"- 	c #449345",
"; 	c #2F9A30",
"> 	c #259B25",
", 	c #269527",
"' 	c #338D32",
") 	c #4A824A",
"! 	c #697E6A",
"~ 	c #7D7E7D",
"{ 	c #817F81",
"] 	c #A9A9A9",
"^ 	c #807F80",
"/ 	c #817D82",
"( 	c #6D856D",
"_ 	c #399C38",
": 	c #0FB00F",
"< 	c #01B901",
"[ 	c #00B900",
"} 	c #02B801",
"| 	c #03B103",
"1 	c #00A500",
"2 	c #019401",
"3 	c #158314",
"4 	c #417940",
"5 	c #727B72",
"6 	c #827F82",
"7 	c #B2B2B2",
"8 	c #827D82",
"9 	c #668865",
"0 	c #1FAA1F",
"a 	c #00C100",
"b 	c #03C802",
"c 	c #0ACB09",
"d 	c #10CD10",
"e 	c #16CC14",
"f 	c #16C614",
"g 	c #0DB60C",
"h 	c #03A203",
"i 	c #009100",
"j 	c #017C01",
"k 	c #2A702A",
"l 	c #6E786F",
"m 	c #818082",
"n 	c #B3B3B3",
"o 	c #817E81",
"p 	c #6C856D",
"q 	c #21AA21",
"r 	c #00C700",
"s 	c #0BD10B",
"t 	c #16DA16",
"u 	c #1FE120",
"v 	c #27E627",
"w 	c #2AE32A",
"x 	c #25D826",
"y 	c #1AC51A",
"z 	c #0AAB0A",
"A 	c #029702",
"B 	c #008600",
"C 	c #006F00",
"D 	c #2D672E",
"E 	c #747A75",
"F 	c #389B37",
"G 	c #03C203",
"H 	c #0FD40F",
"I 	c #1EE31E",
"J 	c #2AEE2A",
"K 	c #35F634",
"L 	c #3BF73A",
"M 	c #3AF23A",
"N 	c #30E431",
"O 	c #20CC21",
"P 	c #10B110",
"Q 	c #049A04",
"R 	c #008800",
"S 	c #007700",
"T 	c #025F02",
"U 	c #466445",
"V 	c #7F7E7E",
"W 	c #628762",
"X 	c #10AF0F",
"Y 	c #0BCD0A",
"Z 	c #1FE11D",
"` 	c #2EF22F",
" .	c #3BFC3C",
"..	c #43FF42",
"+.	c #45FE45",
"@.	c #41F741",
"#.	c #34E434",
"$.	c #23CB23",
"%.	c #11B112",
"&.	c #049B05",
"*.	c #008901",
"=.	c #007800",
"-.	c #006100",
";.	c #185017",
">.	c #6C736B",
",.	c #419241",
"'.	c #05B805",
").	c #14D215",
"!.	c #28EA29",
"~.	c #39F939",
"{.	c #44FE44",
"].	c #48FF49",
"^.	c #47FD47",
"/.	c #3FF23F",
"(.	c #32DE31",
"_.	c #20C621",
":.	c #0FAC10",
"<.	c #059704",
"[.	c #018600",
"}.	c #007600",
"|.	c #006200",
"1.	c #044704",
"2.	c #516051",
"3.	c #B1B1B1",
"4.	c #2F972E",
"5.	c #04B904",
"6.	c #19D318",
"7.	c #2DE82C",
"8.	c #3CF73C",
"9.	c #44FD45",
"0.	c #45FB46",
"a.	c #42F441",
"b.	c #38E538",
"c.	c #2AD22A",
"d.	c #1ABB1A",
"e.	c #0CA40B",
"f.	c #039104",
"g.	c #008301",
"h.	c #017300",
"i.	c #005F00",
"j.	c #004200",
"k.	c #3E523F",
"l.	c #AFAFAF",
"m.	c #269425",
"n.	c #03B405",
"o.	c #17CA17",
"p.	c #29DF29",
"q.	c #36EC36",
"r.	c #3CF03C",
"s.	c #3BEE3C",
"t.	c #35E335",
"u.	c #2DD32B",
"v.	c #1FC120",
"w.	c #12AD12",
"x.	c #089A08",
"y.	c #028A03",
"z.	c #006D00",
"A.	c #005900",
"B.	c #003E00",
"C.	c #364A37",
"D.	c #AFAEAF",
"E.	c #29902A",
"F.	c #02A802",
"G.	c #11BC10",
"H.	c #20CF1F",
"I.	c #2ADA2A",
"J.	c #2FDB2E",
"K.	c #2ED82E",
"L.	c #27CE28",
"M.	c #1EC01E",
"N.	c #14AF15",
"O.	c #0B9F0B",
"P.	c #059004",
"Q.	c #018201",
"R.	c #017500",
"S.	c #006600",
"T.	c #005200",
"U.	c #003600",
"V.	c #394839",
"W.	c #328732",
"X.	c #009A00",
"Y.	c #08AB08",
"Z.	c #13BA13",
"`.	c #1BC11C",
" +	c #1EC31E",
".+	c #1DBF1C",
"++	c #18B719",
"@+	c #11AC12",
"#+	c #0A9F0B",
"$+	c #069106",
"%+	c #018402",
"&+	c #007801",
"*+	c #006C01",
"=+	c #005C00",
"-+	c #004800",
";+	c #002A00",
">+	c #424941",
",+	c #447C45",
"'+	c #008B00",
")+	c #019801",
"!+	c #07A407",
"~+	c #0CA90D",
"{+	c #0EAA0F",
"]+	c #0EA70F",
"^+	c #0CA10C",
"/+	c #079808",
"(+	c #048D04",
"_+	c #028401",
":+	c #005000",
"<+	c #003900",
"[+	c #042004",
"}+	c #525453",
"|+	c #B0B0B0",
"1+	c #627B64",
"2+	c #0F7A0F",
"3+	c #008700",
"4+	c #029100",
"5+	c #059404",
"6+	c #049505",
"7+	c #059304",
"8+	c #048D03",
"9+	c #018703",
"0+	c #017F00",
"a+	c #006E00",
"b+	c #005500",
"c+	c #004300",
"d+	c #002500",
"e+	c #1C261B",
"f+	c #706E6F",
"g+	c #7C7E7D",
"h+	c #3E733F",
"i+	c #017301",
"j+	c #007D00",
"k+	c #008200",
"l+	c #018300",
"m+	c #017E01",
"n+	c #017800",
"o+	c #007100",
"p+	c #006A00",
"q+	c #006000",
"r+	c #005400",
"s+	c #004500",
"t+	c #002E00",
"u+	c #051805",
"v+	c #4E504D",
"w+	c #737B73",
"x+	c #29682A",
"y+	c #006400",
"z+	c #017100",
"A+	c #007001",
"B+	c #006800",
"C+	c #005A00",
"D+	c #004E00",
"E+	c #004000",
"F+	c #001500",
"G+	c #353835",
"H+	c #797878",
"I+	c #808180",
"J+	c #838083",
"K+	c #6B766A",
"L+	c #255C26",
"M+	c #015400",
"N+	c #005800",
"O+	c #005B00",
"P+	c #004D00",
"Q+	c #002300",
"R+	c #041704",
"S+	c #2E322E",
"T+	c #717172",
"U+	c #828283",
"V+	c #717771",
"W+	c #425E42",
"X+	c #144614",
"Y+	c #033F03",
"Z+	c #003C00",
"`+	c #003500",
" @	c #002700",
".@	c #031B04",
"+@	c #1A221A",
"@@	c #4B4D4C",
"#@	c #777777",
"$@	c #818282",
"%@	c #525252",
"&@	c #818080",
"*@	c #7D7D7E",
"=@	c #6A6E69",
"-@	c #515E51",
";@	c #384B38",
">@	c #2D3C2C",
",@	c #2D392D",
"'@	c #39423A",
")@	c #6E6D6F",
"!@	c #808080",
"~@	c #808081",
"{@	c #9D9D9D",
"    . . . . . . . + . . . + + . . @ # $ ",
". % % % & * = - ; > , ' ) ! ~ { % % % ] ",
"+ % ^ / ( _ : < [ } | 1 2 3 4 5 6 % % 7 ",
"+ % 8 9 0 a b c d e f g h i j k l m % n ",
". o p q r s t u v w x y z A B C D E { n ",
"  * F G H I J K L M N O P Q R S T U V n ",
". W X Y Z `  ...+.@.#.$.%.&.*.=.-.;.>.n ",
". ,.'.).!.~.{.].^./.(._.:.<.[.}.|.1.2.3.",
". 4.5.6.7.8.9.0.a.b.c.d.e.f.g.h.i.j.k.l.",
". m.n.o.p.q.r.s.t.u.v.w.x.y.j z.A.B.C.D.",
"  E.F.G.H.I.J.K.L.M.N.O.P.Q.R.S.T.U.V.l.",
". W.X.Y.Z.`. +.+++@+#+$+%+&+*+=+-+;+>+l.",
". ,+'+)+!+~+{+]+^+/+(+_+=.z.-.:+<+[+}+|+",
". 1+2+3+4+5+6+7+8+9+0+S a+-.b+c+d+e+f+l.",
". g+h+i+j+k+l+k+m+n+o+p+q+r+s+t+u+v+% |+",
"  { w+x+y+C z+A+z.B+-.C+D+E+t+F+G+H+I+|+",
". % J+K+L+M+N+O+A.r+P+s+U.Q+R+S+T+U+% |+",
". % % o V+W+X+Y+Z+`+t+ @.@+@@@#@$@% % 3.",
"%@% % % &@*@=@-@;@>@,@'@}+)@!@~@% % % 7 ",
"$ {@l.7 n n 7 7 7 7 7 7 7 7 7 7 7 7 7 n "};
