/* XPM */
static char * image_name[]={
"20 20 43 2",
"  	c #B8B8B8",
". 	c #BABABA",
"X 	c #B5B5B5",
"o 	c #8F8F8F",
"O 	c #7F7F7F",
"+ 	c #BD52BD",
"@ 	c #7D7D7D",
"# 	c #509F69",
"$ 	c #41AC41",
"% 	c #238E23",
"& 	c #707070",
"* 	c #575757",
"= 	c #00AF14",
"- 	c #545454",
"; 	c #757575",
": 	c #4D4D4D",
"> 	c #00FF00",
", 	c #32D838",
"< 	c #00562D",
"1 	c #737373",
"2 	c #828282",
"3 	c #4F4F4F",
"4 	c #7E7E7E",
"5 	c #5DF370",
"6 	c #6E6E6E",
"7 	c #141414",
"8 	c #121212",
"9 	c #0D0D0D",
"0 	c #454545",
"q 	c #6B6B6B",
"w 	c #1F1F1F",
"e 	c #0F0F0F",
"r 	c #0A0A0A",
"t 	c #080808",
"y 	c #363636",
"u 	c #787878",
"i 	c #303030",
"p 	c #4A4A4A",
"a 	c #171717",
"s 	c #1C1C1C",
"d 	c #ADADAD",
"f 	c #333333",
"g 	c #616161",
"                                  . X o ",
"  O O O + @ # $ % % % % # & @ + O O O * ",
"  O + + # % = = = = = = = % - ; + O O : ",
"  O + # % > > > , , , = = = < < 1 2 O : ",
"  + # % > > , , , , , , = = = < < ; + : ",
"  @ % > > , , , , , , , = = = < < 3 4 : ",
"  # = > , , , 5 5 5 , , = = = < < < 6 : ",
"  $ = , , , 5 5 5 , , , = = = < < < * : ",
"  % = , , , 5 5 5 , , = = = = < < < < 3 ",
"  % = , , , , , , , , = = = < < < 7 < 3 ",
"  % = = , , , , , , = = = = < < < 8 < 3 ",
"  % = = = , , = = = = = = < < < < 9 0 3 ",
"  * = = = = = = = = = = < < < < 8 9 - 3 ",
"  q < = = = = = = = < < < < < < 9 w 6 3 ",
"  @ < < < = = = < < < < < < < e r 3 O 3 ",
"  + ; < < < < < < < < < < < e t y u 2 3 ",
"  O 2 6 < < < < < < < < 8 9 r i & 2 O 3 ",
"  O O + 1 p < a 7 8 e 9 r s : u 2 O O : ",
"d O O O 2 @ q - < f i < - 6 2 2 O O O : ",
"o g 3 : : : : : : : : : : : : : : : : : "
};
