/* XPM */
static char * image_name[]={
"20 20 43 2",
"  	c #B8B8B8",
". 	c #BABABA",
"X 	c #B5B5B5",
"o 	c #8F8F8F",
"O 	c #7F7F7F",
"+ 	c #708090",
"@ 	c #7D7D7D",
"# 	c #91535D",
"$ 	c #A52A2A",
"% 	c #8E2323",
"& 	c #707070",
"* 	c #575757",
"= 	c #9B7071",
"- 	c #545454",
"; 	c #757575",
": 	c #4D4D4D",
"> 	c #D11619",
", 	c #6B3939",
"< 	c #737373",
"1 	c #828282",
"2 	c #DA322D",
"3 	c #4F4F4F",
"4 	c #7E7E7E",
"5 	c #FF6347",
"6 	c #6E6E6E",
"7 	c #141414",
"8 	c #121212",
"9 	c #0D0D0D",
"0 	c #454545",
"q 	c #6B6B6B",
"w 	c #1F1F1F",
"e 	c #0F0F0F",
"r 	c #0A0A0A",
"t 	c #080808",
"y 	c #363636",
"u 	c #787878",
"i 	c #303030",
"p 	c #4A4A4A",
"a 	c #171717",
"s 	c #1C1C1C",
"d 	c #ADADAD",
"f 	c #333333",
"g 	c #616161",
"                                  . X o ",
"  O O O + @ # # $ $ % % # & @ + O O O * ",
"  O + + = $ $ $ $ $ $ % % % - ; + O O : ",
"  O + # $ > > > > > > $ % % , , < 1 O : ",
"  + = $ > > > > 2 2 2 > $ % % , , ; + : ",
"  @ $ > > > 2 2 2 2 2 > $ % % , , 3 4 : ",
"  # $ > > 2 2 5 5 5 2 > $ % % , , , 6 : ",
"  # $ > 2 2 5 5 5 2 2 > $ % % , , , * : ",
"  $ $ > 2 2 5 5 5 2 2 $ % % % , , , , 3 ",
"  % $ > 2 2 2 2 2 2 > $ % % , , , 7 , 3 ",
"  % % $ > 2 2 2 2 > $ % % % , , , 8 , 3 ",
"  % % % $ > > $ $ $ % % % , , , , 9 0 3 ",
"  * % % % % $ % % % % % , , , , 8 9 - 3 ",
"  q , % % % % % % % , , , , , , 9 w 6 3 ",
"  @ , , , % % % , , , , , , , e r 3 O 3 ",
"  + ; , , , , , , , , , , , e t y u 1 3 ",
"  O 1 6 , , , , , , , , 8 9 r i & 1 O 3 ",
"  O O + < p , a 7 8 e 9 r s : u 1 O O : ",
"d O O O 1 @ q - , f i , - 6 1 1 O O O : ",
"o g 3 : : : : : : : : : : : : : : : : : "
};
